<svg xmlns="http://www.w3.org/2000/svg" viewBox="0 0 70 44" width="70" height="44" fill="#c9a84c">
  <!-- J: serif superior -->
  <rect x="5" y="7" width="9" height="3" rx="0.5"/>
  <!-- J: asta -->
  <rect x="9" y="10" width="3.5" height="18"/>
  <!-- J: remate inferior puntiagudo -->
  <path d="M12.5 28 C12.5 34, 9 37, 5 37 C8 35, 10 32, 9 28 Z"/>
  <!-- H: asta izquierda -->
  <rect x="22" y="5" width="3.5" height="27"/>
  <!-- H: asta derecha -->
  <rect x="34.5" y="5" width="3.5" height="27"/>
  <!-- H: travesaño -->
  <rect x="25.5" y="17" width="9" height="3"/>
  <!-- H: serifas superiores -->
  <rect x="19" y="5" width="9.5" height="2.5" rx="0.5"/>
  <rect x="31.5" y="5" width="9.5" height="2.5" rx="0.5"/>
  <!-- H: serifas inferiores -->
  <rect x="19" y="29.5" width="9.5" height="2.5" rx="0.5"/>
  <rect x="31.5" y="29.5" width="9.5" height="2.5" rx="0.5"/>
  <!-- punto -->
  <circle cx="60" cy="7" r="3"/>
</svg>
